<?xml version="1.0" standalone="no"?>
<!DOCTYPE svg PUBLIC "-//W3C//DTD SVG 20010904//EN"
 "https://www.w3.org/TR/2001/REC-SVG-20010904/DTD/svg10.dtd">
<svg version="1.0" 
 width="155.000000pt" height="155.000000pt" viewBox="0 0 155.000000 155.000000"
 preserveAspectRatio="xMidYMid meet">

<g transform="translate(0.000000,155.000000) scale(0.100000,-0.100000)"
fill="#000000" stroke="none">
<path d="M736 1397 c-20 -35 -36 -68 -36 -73 0 -5 70 -139 155 -299 117 -222
151 -293 142 -301 -12 -12 -205 -134 -211 -134 -2 0 -57 101 -122 225 -65 123
-121 221 -125 217 -3 -4 -118 -226 -253 -494 l-247 -488 70 0 71 0 218 137
c549 345 663 414 673 411 5 -2 75 -125 153 -273 l143 -270 77 -3 77 -3 -17 33
c-9 18 -135 256 -279 528 -144 272 -299 567 -345 655 -116 222 -101 209 -144
132z m-116 -788 l48 -95 -41 -26 c-23 -14 -100 -62 -171 -107 -71 -45 -131
-79 -134 -77 -2 3 47 102 108 222 129 249 110 241 190 83z"/>
<path d="M822 375 c-28 -20 -52 -38 -52 -42 0 -3 33 -68 73 -144 l72 -139 73
0 c39 0 72 3 72 6 0 7 -180 354 -183 354 -1 0 -26 -16 -55 -35z"/>
</g>
</svg>
